<svg version="1.1" xmlns="http://www.w3.org/2000/svg" xmlns:xlink="http://www.w3.org/1999/xlink" width="14.16842" height="14.16842" viewBox="0,0,14.16842,14.16842"><g transform="translate(-232.91579,-172.91578)"><g stroke="none" stroke-miterlimit="10"><path d="M232.91579,187.0842v-14.16842h14.16842v14.16842z" fill="#33ff00" stroke-width="NaN"/><path d="M237.08977,180.1007c-1.5387,0 -1.6615,-5.88333 -0.60964,-6.0937c0.1757,-0.15316 0.40542,-0.24592 0.65681,-0.24592c0.55228,0 1,0.44772 1,1c0,0.27046 -0.10737,0.51585 -0.28182,0.69585c0.44368,1.89752 0.50052,4.64377 -0.76535,4.64377z" fill="#000000" stroke-width="0.5"/><path d="M241.4294,174.84598c0.35961,0.20549 0.67892,0.71481 0.93015,1.3679c0.82108,2.13445 0.91505,5.80462 -0.68728,5.42345c-0.73753,-0.17544 -1.62564,-6.0012 -1.10469,-6.29889z" fill="#000000" stroke-width="0.5"/><path d="M236.9577,182.74546c0.64798,0.59923 1.88767,0.46702 2.63027,0.49991c1.39648,0.06185 6.10737,-2.01014 5.57301,1.1793c-0.30639,1.82875 -7.96108,2.5736 -9.37095,0.81329c-0.59304,-0.74044 -1.53099,-3.91266 -0.5998,-4.70665c0.17395,-0.43981 0.49479,-0.73486 0.86182,-0.73486c0.55228,0 1,0.66808 1,1.49219c0,0.36618 -0.0884,0.70157 -0.23508,0.96121c0.01782,0.23403 0.05062,0.41226 0.14074,0.4956z" fill="#000000" stroke-width="0.5"/></g></g></svg>