<svg version="1.1" xmlns="http://www.w3.org/2000/svg" xmlns:xlink="http://www.w3.org/1999/xlink" width="476.74785" height="363.03943" viewBox="0,0,476.74785,363.03943"><g transform="translate(-1.62607,2.51973)"><g stroke-miterlimit="10"><path d="M1.62608,359.2745v-358.54898h476.74785v358.54898z" fill="#000000" fill-rule="nonzero" stroke="none" stroke-width="0"/><path d="M57.4803,-2.5197c6.29269,0 12.58534,0 18.87805,0c10.56539,3.92304 20.73049,8.64252 30.49531,14.15854c6.64507,-0.90869 13.42186,-1.5138 20.33021,-1.8152c1.95119,0.11915 3.88743,-0.00189 5.80863,-0.36304c-0.70502,-1.07554 -1.67289,-1.68058 -2.90432,-1.8152c-5.93192,-2.84234 -11.49847,-6.2307 -16.69981,-10.1651c4.59847,0 9.19702,0 13.7955,0c1.9843,2.08168 4.40439,3.1708 7.26079,3.26735c-1.6315,-0.92754 -3.08366,-2.01666 -4.35647,-3.26735c1.21037,0 2.42002,0 3.63039,0c1.91975,1.61378 4.09799,2.82391 6.53471,3.63039c8.59677,0.96171 17.30972,0.96171 26.13884,0c-0.09003,-0.44049 -0.33182,-0.68252 -0.72608,-0.72608c-1.50516,-0.58054 -2.71553,-1.54864 -3.63039,-2.90432c4.84077,0 9.68081,0 14.52158,0c1.76728,1.15313 3.46122,2.48427 5.08255,3.99343c5.04407,0.95034 10.12662,1.5554 15.24765,1.8152c2.4752,1.01899 5.13701,1.50303 7.98687,1.45216c18.08372,2.28715 35.75139,6.28058 53.00375,11.9803c24.72589,9.46052 48.68649,20.47266 71.8818,33.03659c0.69921,-0.34111 0.69921,-0.82519 0,-1.45216c0,-0.48408 0.24178,-0.72608 0.72608,-0.72608c3.7669,4.45123 8.2439,8.08162 13.43246,10.89118c-0.50608,-5.19342 -1.71645,-10.27598 -3.63039,-15.24765c-1.17189,-2.49749 -2.74458,-4.67573 -4.71951,-6.53471c-4.00069,-3.15721 -7.8736,-6.42456 -11.61726,-9.80206c-17.91527,-10.04182 -35.82545,-19.84388 -53.72983,-29.40619c7.26079,0 14.52158,0 21.78236,0c2.96313,1.84749 6.10923,3.54167 9.43902,5.08255c0.48429,-0.24202 0.96786,-0.48405 1.45216,-0.72608c4.94097,3.07786 10.02352,5.98216 15.24765,8.71295c0.24178,-0.12104 0.48429,-0.242 0.72608,-0.36304c-1.41222,-2.7281 -2.6226,-5.51137 -3.63039,-8.34991c0.69123,0.6912 1.41731,1.41728 2.17824,2.17824c1.63513,3.20106 3.08729,6.46842 4.35647,9.80206c3.33851,1.54096 6.72712,2.87208 10.1651,3.99343c-0.56198,-2.09176 -1.52985,-4.02799 -2.90432,-5.80863c-4.60334,-4.86415 -9.20232,-9.70467 -13.7955,-14.52158c18.87805,0 37.7561,0 56.63415,0c0.64548,1.62354 1.61335,3.0757 2.90432,4.35647c0.49591,-0.26337 0.98021,-0.5054 1.45216,-0.72608c2.68722,4.89116 4.98598,9.97371 6.89775,15.24765c3.3131,11.12229 6.58045,22.25548 9.80206,33.39962c0.10165,1.11061 0.58595,1.83669 1.45216,2.17824c0.04356,0.39433 0.28535,0.63634 0.72608,0.72608c0.71954,-2.86467 0.96133,-5.76899 0.72608,-8.71295c1.27572,-12.08928 -0.29769,-23.70655 -4.71951,-34.85178c-2.12959,-3.85816 -4.18657,-7.73058 -6.17167,-11.61726c3.87218,0 7.74508,0 11.61726,0c3.06914,7.51169 5.24737,15.25651 6.53471,23.23452c0.03558,2.59798 0.51915,5.01829 1.45216,7.26079c1.82972,25.9298 -2.04246,50.85819 -11.61726,74.78612c0.99328,0.79433 1.84061,0.55182 2.54128,-0.72608c4.37753,-5.22268 8.61275,-10.54775 12.70638,-15.97373c1.71209,-2.21164 3.16425,-4.63166 4.35647,-7.26079c3.03646,-4.13792 5.69827,-8.4944 7.98687,-13.06942c0,9.92332 0,19.84591 0,29.76923c-4.8473,6.18837 -10.17164,12.11753 -15.97373,17.78893c0.48429,0.48429 0.96786,0.48429 1.45216,0c4.78123,-3.94769 9.622,-7.69934 14.52158,-11.25422c0,0.96786 0,1.93645 0,2.90432c-6.96019,5.14209 -13.37437,10.95072 -19.24109,17.42589c-0.32819,3.76327 -1.1748,7.39366 -2.54128,10.89118c-10.55936,27.34122 -27.25918,50.09145 -50.09944,68.25141c0.24178,0.24178 0.48429,0.48429 0.72608,0.72608c13.61833,-7.57082 26.44524,-16.28377 38.48218,-26.13884c3.22669,-3.45468 6.49405,-6.84257 9.80206,-10.1651c8.7144,-11.23607 16.33823,-23.09511 22.87148,-35.57786c0,2.17824 0,4.35647 0,6.53471c-3.60426,6.55577 -6.87161,13.33298 -9.80206,20.33021c-0.51406,0.63968 -1.11961,1.12324 -1.8152,1.45216c0.38337,-0.97803 0.50462,-1.94662 0.36304,-2.90432c-0.99618,1.02377 -1.601,2.23414 -1.8152,3.63039c-4.7137,5.55087 -9.19143,11.3595 -13.43246,17.42589c-8.42106,8.74998 -17.98134,16.01076 -28.68011,21.78236c11.68696,-2.93917 22.33564,-8.2635 31.94747,-15.97373c8.42251,-6.00249 16.1676,-12.77899 23.23452,-20.33021c0,14.76336 0,29.52745 0,44.29081c-4.77106,7.83003 -10.0954,15.33261 -15.97373,22.50844c0.24178,0.24178 0.48429,0.48429 0.72608,0.72608c5.25318,-3.4663 10.33573,-7.09669 15.24765,-10.89118c0,10.1651 0,20.33021 0,30.49531c-5.93352,3.86274 -11.98393,7.61439 -18.15197,11.25422c1.21037,0.48429 2.42002,0.48429 3.63039,0c4.88724,-1.26773 9.72728,-2.59864 14.52158,-3.99343c0,2.66253 0,5.32434 0,7.98687c-39.57638,15.67967 -80.72036,25.1187 -123.4334,28.31707c-5.28368,0.26574 -10.36623,-0.58159 -15.24765,-2.54128c-18.66386,-0.67598 -37.30012,-1.7651 -55.90807,-3.26735c-4.7275,-0.95697 -9.56827,-0.95697 -14.52158,0c0.09003,0.44073 0.33182,0.68251 0.72608,0.72608c10.76557,3.3828 21.77728,5.80282 33.03659,7.26079c0.72608,-0.24178 1.45216,-0.48429 2.17824,-0.72608c11.19396,2.57758 22.44818,4.87707 33.76266,6.89775c9.78319,2.08312 19.46399,4.6244 29.04315,7.62383c-0.51479,0.65638 -1.24087,0.89816 -2.17824,0.72608c-16.31717,-2.67633 -32.53341,-5.82243 -48.64728,-9.43902c-2.49263,-1.39044 -5.15516,-1.63223 -7.98687,-0.72608c2.41131,0.60265 4.83133,1.08694 7.26079,1.45216c2.10926,3.93825 4.40875,7.81116 6.89775,11.61726c2.62913,1.3781 4.92862,3.19329 6.89775,5.44559c3.84459,-0.25994 7.71677,-0.01815 11.61726,0.72608c1.10291,0.98093 2.07078,2.07005 2.90432,3.26735c1.24305,4.06168 2.33217,8.17637 3.26735,12.34334c3.27389,5.31853 5.3316,11.12716 6.17167,17.42589c1.11961,2.19711 2.93481,3.40749 5.44559,3.63039c13.09556,-3.68267 26.28623,-6.82877 39.57129,-9.43902c2.40695,-0.37466 3.98036,0.59321 4.71951,2.90432c1.15519,3.78577 1.76074,7.65868 1.8152,11.61726c-66.79925,0 -133.5985,0 -200.39775,0c0.36231,-2.88616 0.6041,-5.79048 0.72608,-8.71295c-1.43473,-8.89156 -2.16081,-17.84629 -2.17824,-26.86492c0.82337,-1.79051 0.94463,-3.72696 0.36304,-5.80863c-0.27809,-0.4037 -0.64113,-0.64548 -1.08912,-0.72608c-1.25612,-4.00868 -2.46576,-8.12337 -3.63039,-12.34334c-3.92663,-0.4734 -7.79881,-1.19948 -11.61726,-2.17824c-3.4618,2.01923 -7.09219,2.7453 -10.89118,2.17824c-0.31374,-0.87856 -0.79774,-1.60463 -1.45216,-2.17824c-0.42548,-1.69902 -1.15156,-3.27244 -2.17824,-4.71951c-2.34422,-0.42548 -4.52245,-0.06244 -6.53471,1.08912c-1.161,0.19459 -2.12915,-0.04792 -2.90432,-0.72608c9.92317,-2.49408 19.96724,-4.67232 30.13227,-6.53471c-1.78688,-3.86564 -3.60208,-7.85908 -5.44559,-11.9803c-0.99603,-2.19711 -1.48011,-4.49661 -1.45216,-6.89775c-26.73742,-2.85639 -50.69802,-12.29542 -71.8818,-28.31707c0,-25.17097 0,-50.34122 0,-75.5122c2.12079,-0.41023 4.057,-1.25757 5.80863,-2.54128c4.64487,-8.75941 11.42158,-15.29412 20.33021,-19.60413c-3.38171,0.23598 -6.77003,0.72027 -10.1651,1.45216c-5.45002,1.88345 -10.77457,3.94116 -15.97373,6.17167c0,-3.87218 0,-7.74508 0,-11.61726c7.72758,-4.44215 15.95645,-7.7095 24.68668,-9.80206c12.88274,-3.24848 25.95216,-5.30618 39.20826,-6.17167c5.81364,0.12053 11.62234,0 17.42589,-0.36304c-5.26044,-1.24014 -10.58521,-2.08675 -15.97373,-2.54128c-21.74003,-2.41494 -43.5224,-4.35139 -65.34709,-5.80863c0,-2.90432 0,-5.80863 0,-8.71295c12.32577,-8.70205 26.12127,-13.66408 41.38649,-14.88462c-7.538,-3.7669 -15.2828,-7.15551 -23.23452,-10.1651c-4.00999,-1.52331 -8.12446,-2.61243 -12.34334,-3.26735c-1.69775,-1.11816 -3.63397,-1.60173 -5.80863,-1.45216c0,-11.85926 0,-23.7186 0,-35.57786c11.61029,-0.83027 23.22755,-0.83027 34.85178,0c2.55485,0.94949 5.21709,0.94949 7.98687,0c-0.08974,-0.44051 -0.33175,-0.68251 -0.72608,-0.72608c-8.24252,-2.25353 -16.47139,-4.55273 -24.68668,-6.89775c-5.71497,-1.55069 -11.5236,-2.39773 -17.42589,-2.54128c0,-12.58534 0,-25.17076 0,-37.7561z" fill="#f7f7f7" fill-rule="evenodd" stroke="none" stroke-width="1"/><path d="M76.35835,-2.5197c12.34334,0 24.68668,0 37.03002,0c5.20134,3.9344 10.76789,7.32277 16.69981,10.1651c0.08038,0.44828 0.32238,0.81132 0.72608,1.08912c-1.36626,0.14384 -2.57642,0.50688 -3.63039,1.08912c-6.90835,0.3014 -13.68513,0.90651 -20.33021,1.8152c-9.76482,-5.51602 -19.92992,-10.2355 -30.49531,-14.15854z" fill="#060606" fill-rule="evenodd" stroke="none" stroke-width="1"/><path d="M133.71857,-2.5197c9.43902,0 18.87805,0 28.31707,0c0.91486,1.35568 2.12523,2.32378 3.63039,2.90432c-8.34119,0.7224 -16.81235,0.96442 -25.41276,0.72608c-2.43672,-0.80648 -4.61496,-2.01661 -6.53471,-3.63039z" fill="#080808" fill-rule="evenodd" stroke="none" stroke-width="1"/><path d="M176.55722,-2.5197c25.65454,0 51.30981,0 76.96435,0c23.08713,12.54998 45.35379,26.46644 66.79925,41.74953c3.20056,3.03682 6.34665,6.0621 9.43902,9.07598c0.69921,0.62697 0.69921,1.11105 0,1.45216c-23.19531,-12.56392 -47.15591,-23.57607 -71.8818,-33.03659c-17.25236,-5.69972 -34.92003,-9.69315 -53.00375,-11.9803c-2.4752,-1.01899 -5.13701,-1.50303 -7.98687,-1.45216c-5.12103,-0.2598 -10.20359,-0.86486 -15.24765,-1.8152c-1.62133,-1.50916 -3.31528,-2.8403 -5.08255,-3.99343z" fill="#060606" fill-rule="evenodd" stroke="none" stroke-width="1"/><path d="M257.87805,-2.5197c4.11469,0 8.22865,0 12.34334,0c17.90438,9.56231 35.81456,19.36438 53.72983,29.40619c3.74366,3.3775 7.61657,6.64486 11.61726,9.80206c1.97493,1.85898 3.54762,4.03722 4.71951,6.53471c1.91394,4.97168 3.12432,10.05423 3.63039,15.24765c-5.18856,-2.80956 -9.66556,-6.43996 -13.43246,-10.89118c-2.17461,-2.77522 -4.59463,-5.31649 -7.26079,-7.62383c-20.71575,-15.74553 -42.49812,-29.90406 -65.34709,-42.47561z" fill="#090909" fill-rule="evenodd" stroke="none" stroke-width="1"/><path d="M292.00375,-2.5197c1.69394,0 3.38861,0 5.08255,0c2.48319,2.15947 5.3875,3.24859 8.71295,3.26735c-2.21236,-0.37453 -3.9063,-1.46365 -5.08255,-3.26735c3.87218,0 7.74508,0 11.61726,0c0.2505,1.95886 1.21836,3.41102 2.90432,4.35647c1.0078,2.83854 2.21817,5.62181 3.63039,8.34991c-0.24178,0.12104 -0.48429,0.242 -0.72608,0.36304c-5.22414,-2.73078 -10.30669,-5.63508 -15.24765,-8.71295c-0.48429,0.24202 -0.96786,0.48405 -1.45216,0.72608c-3.3298,-1.54088 -6.4759,-3.23507 -9.43902,-5.08255z" fill="#121212" fill-rule="evenodd" stroke="none" stroke-width="1"/><path d="M297.0863,-2.5197c1.21037,0 2.42002,0 3.63039,0c1.17625,1.8037 2.87019,2.89282 5.08255,3.26735c-3.32544,-0.01876 -6.22976,-1.10788 -8.71295,-3.26735z" fill="#e2e2e2" fill-rule="evenodd" stroke="none" stroke-width="1"/><path d="M374.05066,-2.5197c3.63039,0 7.26079,0 10.89118,0c1.9851,3.88669 4.04208,7.7591 6.17167,11.61726c4.42182,11.14524 5.99523,22.7625 4.71951,34.85178c-0.48429,2.66231 -0.96786,5.32455 -1.45216,7.98687c-0.86621,-0.34155 -1.35051,-1.06763 -1.45216,-2.17824c-3.22161,-11.14415 -6.48897,-22.27733 -9.80206,-33.39962c-1.91177,-5.27395 -4.21053,-10.3565 -6.89775,-15.24765c-0.90905,-1.08975 -1.63513,-2.29988 -2.17824,-3.63039z" fill="#070707" fill-rule="evenodd" stroke="none" stroke-width="1"/><path d="M396.5591,-2.5197c7.98687,0 15.97373,0 23.9606,0c0,20.57221 0,41.14449 0,61.7167c-3.76472,7.76875 -7.75815,15.5134 -11.9803,23.23452c-0.35868,1.18641 -0.47921,2.39679 -0.36304,3.63039c-4.09363,5.42599 -8.32885,10.75105 -12.70638,15.97373c-0.70067,1.2779 -1.548,1.52041 -2.54128,0.72608c9.5748,-23.92793 13.44698,-48.85632 11.61726,-74.78612c0.12924,-2.63015 -0.35505,-5.05039 -1.45216,-7.26079c-1.28734,-7.97801 -3.46557,-15.72283 -6.53471,-23.23452z" fill="#040404" fill-rule="evenodd" stroke="none" stroke-width="1"/><path d="M312.33396,-2.5197c0.48429,0 0.96786,0 1.45216,0c0.82047,1.31751 1.30404,2.76966 1.45216,4.35647c-1.68595,-0.94546 -2.65382,-2.39761 -2.90432,-4.35647z" fill="#cbcbcb" fill-rule="evenodd" stroke="none" stroke-width="1"/><path d="M127.18386,-2.5197c0.96808,0 1.93623,0 2.90432,0c1.27282,1.25069 2.72497,2.33981 4.35647,3.26735c-2.85639,-0.09655 -5.27649,-1.18567 -7.26079,-3.26735z" fill="#686868" fill-rule="evenodd" stroke="none" stroke-width="1"/><path d="M371.87242,-2.5197c0.72608,0 1.45216,0 2.17824,0c0.54311,1.33051 1.26919,2.54064 2.17824,3.63039c-0.47195,0.22068 -0.95625,0.46271 -1.45216,0.72608c-1.29097,-1.28077 -2.25883,-2.73293 -2.90432,-4.35647z" fill="#acacac" fill-rule="evenodd" stroke="none" stroke-width="1"/><path d="M165.66604,0.38462c0.39426,0.04356 0.63605,0.28559 0.72608,0.72608c-8.82912,0.96171 -17.54206,0.96171 -26.13884,0c8.6004,0.23834 17.07156,-0.00368 25.41276,-0.72608z" fill="#b1b1b1" fill-rule="evenodd" stroke="none" stroke-width="1"/><path d="M135.17073,1.83677c0.17063,-0.43328 0.53367,-0.6753 1.08912,-0.72608c1.37447,0.50558 2.70537,1.11064 3.99343,1.8152c-1.88417,0.43593 -3.57884,0.07289 -5.08255,-1.08912z" fill="#676767" fill-rule="evenodd" stroke="none" stroke-width="1"/><path d="M196.88743,3.28893c2.84986,-0.05088 5.51166,0.43317 7.98687,1.45216c-2.84986,0.05088 -5.51166,-0.43317 -7.98687,-1.45216z" fill="#9a9a9a" fill-rule="evenodd" stroke="none" stroke-width="1"/><path d="M173.65291,7.6454c0.73189,1.33497 1.82101,2.30305 3.26735,2.90432c0.3369,-0.43158 0.45816,-0.91566 0.36304,-1.45216c14.70237,11.21378 29.22395,22.468 43.56473,33.76266c0.86839,0.47507 0.86839,0.83811 0,1.08912c-2.51659,-1.44388 -5.17839,-2.533 -7.98687,-3.26735c-14.3495,-11.16898 -30.08072,-19.88193 -47.19512,-26.13884c-5.83767,-3.01824 -11.88809,-5.68055 -18.15197,-7.98687c-0.76311,-1.00547 -1.73097,-1.73152 -2.90432,-2.17824c8.25043,-0.52352 16.47908,-0.28149 24.68668,0.72608c1.13486,1.41389 2.58702,2.26101 4.35647,2.54128z" fill="#0f0f0f" fill-rule="evenodd" stroke="none" stroke-width="1"/><path d="M177.2833,9.09756c-1.21037,-0.48408 -2.42002,-0.96808 -3.63039,-1.45216c-0.77981,-1.00533 -1.74767,-1.85244 -2.90432,-2.54128c2.81428,0.20091 4.99252,1.5321 6.53471,3.99343z" fill="#2e2e2e" fill-rule="evenodd" stroke="none" stroke-width="1"/><path d="M313.78612,-2.5197c0.48429,0 0.96786,0 1.45216,0c4.59317,4.81691 9.19216,9.65743 13.7955,14.52158c1.37447,1.78064 2.34233,3.71687 2.90432,5.80863c-3.43798,-1.12136 -6.82659,-2.45248 -10.1651,-3.99343c-1.26919,-3.33365 -2.72134,-6.601 -4.35647,-9.80206c-0.76093,-0.76096 -1.48701,-1.48704 -2.17824,-2.17824c-0.14812,-1.58681 -0.63169,-3.03897 -1.45216,-4.35647z" fill="#111111" fill-rule="evenodd" stroke="none" stroke-width="1"/><path d="M310.8818,85.33583c1.77091,-0.40443 3.70736,-1.1305 5.80863,-2.17824c0.48429,0 0.96786,0 1.45216,0c-8.95037,-5.93061 -18.3894,-11.13442 -28.31707,-15.61069c-11.95489,-5.23285 -24.05644,-9.95236 -36.30394,-14.15854c-8.07182,-3.06333 -16.30047,-5.72557 -24.68668,-7.98687c-2.29441,-1.69017 -4.23086,-3.74744 -5.80863,-6.17167c0.48429,-0.242 0.96786,-0.48408 1.45216,-0.72608c-1.21037,-0.60504 -2.42002,-1.21016 -3.63039,-1.8152c-11.48511,-10.38874 -23.34416,-20.4328 -35.57786,-30.13227c39.4544,3.20607 76.7262,13.85518 111.81614,31.94747c13.36638,8.57746 26.67759,17.2904 39.93433,26.13884c5.76289,4.17481 10.24062,9.37803 13.43246,15.61069c3.01468,10.84762 5.91899,21.7388 8.71295,32.67355c0.36231,2.65164 0.48284,5.31344 0.36304,7.98687c-1.99889,-0.88146 -3.93535,-1.97058 -5.80863,-3.26735c-5.68157,-5.31708 -11.4902,-10.52088 -17.42589,-15.61069c-8.29835,-5.88705 -16.76879,-11.45317 -25.41276,-16.69981z" fill="#030303" fill-rule="evenodd" stroke="none" stroke-width="1"/><path d="M130.08818,7.6454c1.23143,0.13462 2.19929,0.73966 2.90432,1.8152c-1.9212,0.36115 -3.85744,0.48219 -5.80863,0.36304c1.05398,-0.58224 2.26413,-0.94528 3.63039,-1.08912c-0.4037,-0.2778 -0.6457,-0.64084 -0.72608,-1.08912z" fill="#7d7d7d" fill-rule="evenodd" stroke="none" stroke-width="1"/><path d="M173.65291,7.6454c1.21037,0.48408 2.42002,0.96808 3.63039,1.45216c0.09512,0.5365 -0.02614,1.02058 -0.36304,1.45216c-1.44635,-0.60127 -2.53547,-1.56935 -3.26735,-2.90432z" fill="#a6a6a6" fill-rule="evenodd" stroke="none" stroke-width="1"/><path d="M114.84053,15.63227c1.45216,-0.48408 2.90432,-0.96808 4.35647,-1.45216c6.52309,-0.67707 13.0578,-0.79803 19.60413,-0.36304c10.43666,5.9447 21.08605,11.51125 31.94747,16.69981c-6.23193,-1.64784 -12.52413,-3.342 -18.87805,-5.08255c-5.55959,-0.77378 -11.12643,-1.49986 -16.69981,-2.17824c-6.62917,-2.85516 -13.40588,-5.39644 -20.33021,-7.62383z" fill="#0e0e0e" fill-rule="evenodd" stroke="none" stroke-width="1"/><path d="M119.197,14.18011c-1.45216,0.48408 -2.90432,0.96808 -4.35647,1.45216c-0.39433,-0.04356 -0.63634,-0.28557 -0.72608,-0.72608c1.62838,-0.70735 3.32254,-0.94942 5.08255,-0.72608z" fill="#717171" fill-rule="evenodd" stroke="none" stroke-width="1"/><path d="M334.11632,20.71482c0.7239,-0.88037 1.44998,-0.75933 2.17824,0.36304c-0.78199,0.34097 -1.50807,0.21993 -2.17824,-0.36304z" fill="#383838" fill-rule="evenodd" stroke="none" stroke-width="1"/><path d="M154.04878,13.45403c19.12274,6.57414 37.27471,15.16604 54.45591,25.7758c-18.93323,-7.04747 -37.0852,-15.63937 -54.45591,-25.7758z" fill="#1a1a1a" fill-rule="evenodd" stroke="none" stroke-width="1"/><path d="M403.09381,20.71482c1.09711,2.2104 1.5814,4.63064 1.45216,7.26079c-0.93301,-2.24249 -1.41658,-4.66281 -1.45216,-7.26079z" fill="#828282" fill-rule="evenodd" stroke="none" stroke-width="1"/><path d="M253.52158,-2.5197c1.45216,0 2.90432,0 4.35647,0c22.84897,12.57155 44.63134,26.73008 65.34709,42.47561c2.66616,2.30733 5.08618,4.84861 7.26079,7.62383c-0.48429,0 -0.72608,0.242 -0.72608,0.72608c-3.09237,-3.01388 -6.23847,-6.03916 -9.43902,-9.07598c-21.44546,-15.28309 -43.71212,-29.19955 -66.79925,-41.74953z" fill="#dadada" fill-rule="evenodd" stroke="none" stroke-width="1"/><path d="M335.56848,36.68856c-1.16245,-1.70854 -2.61461,-3.28173 -4.35647,-4.71951c1.9212,0.66821 3.7364,1.75733 5.44559,3.26735c0.38337,0.95552 0.02033,1.4396 -1.08912,1.45216z" fill="#2f2f2f" fill-rule="evenodd" stroke="none" stroke-width="1"/><path d="M147.51407,31.606c1.29823,-0.81502 2.75039,-0.93599 4.35647,-0.36304c10.19995,2.08813 20.36506,4.26637 30.49531,6.53471c25.03011,9.49275 47.78034,22.92521 68.25141,40.29737c1.69322,3.13158 4.11324,5.43107 7.26079,6.89775c15.66007,15.53881 32.11737,30.18164 49.37336,43.92777c-0.24178,0.24178 -0.48429,0.48429 -0.72608,0.72608c-34.32465,-18.33059 -67.72427,-38.05597 -100.19887,-59.17542c-18.25289,-12.15521 -36.40486,-24.49855 -54.45591,-37.03002c-1.38463,-0.81466 -2.83679,-1.4197 -4.35647,-1.8152z" fill="#070707" fill-rule="evenodd" stroke="none" stroke-width="1"/><path d="M57.4803,35.2364c5.90229,0.14355 11.71092,0.99059 17.42589,2.54128c8.21529,2.34502 16.44416,4.64422 24.68668,6.89775c-2.26885,0.71112 -4.68909,0.9532 -7.26079,0.72608c-11.62423,-0.83027 -23.24149,-0.83027 -34.85178,0c0,-3.38839 0,-6.77671 0,-10.1651z" fill="#0c0c0c" fill-rule="evenodd" stroke="none" stroke-width="1"/><path d="M395.83302,43.94934c0.23525,2.94396 -0.00653,5.84827 -0.72608,8.71295c-0.44073,-0.08974 -0.68251,-0.33175 -0.72608,-0.72608c0.48429,-2.66231 0.96786,-5.32455 1.45216,-7.98687z" fill="#545454" fill-rule="evenodd" stroke="none" stroke-width="1"/><path d="M99.59287,44.67542c0.39433,0.04356 0.63634,0.28557 0.72608,0.72608c-2.76977,0.94949 -5.43201,0.94949 -7.98687,0c2.5717,0.22712 4.99194,-0.01496 7.26079,-0.72608z" fill="#6b6b6b" fill-rule="evenodd" stroke="none" stroke-width="1"/><path d="M58.93246,46.85366c4.38316,-0.2391 8.73967,0.00298 13.06942,0.72608c-4.57952,0.84508 -9.178,0.96612 -13.7955,0.36304c0.40367,-0.2778 0.64569,-0.64084 0.72608,-1.08912z" fill="#4f4f4f" fill-rule="evenodd" stroke="none" stroke-width="1"/><path d="M117.74484,46.85366c4.76344,1.78942 9.60392,3.36262 14.52158,4.71951c-2.35126,0.99306 -4.77157,1.23513 -7.26079,0.72608c-2.79032,-1.47743 -5.21056,-3.29262 -7.26079,-5.44559z" fill="#2b2b2b" fill-rule="evenodd" stroke="none" stroke-width="1"/><path d="M249.1651,53.38837c-0.93737,-0.1723 -1.66345,0.0697 -2.17824,0.72608c-1.27427,-0.41546 -2.48464,-1.0205 -3.63039,-1.8152c-0.86839,-0.47507 -0.86839,-0.83811 0,-1.08912c2.01995,0.73741 3.9564,1.46348 5.80863,2.17824z" fill="#646464" fill-rule="evenodd" stroke="none" stroke-width="1"/><path d="M346.45966,46.85366c2.86801,3.47153 6.13537,6.61792 9.80206,9.43902c2.81283,3.20658 4.87054,6.83698 6.17167,10.89118c-0.62806,0.78613 -1.35414,0.90716 -2.17824,0.36304c-2.76563,-1.74716 -5.66995,-3.32036 -8.71295,-4.71951c-1.2808,-5.46374 -2.97547,-10.7883 -5.08255,-15.97373z" fill="#0f0f0f" fill-rule="evenodd" stroke="none" stroke-width="1"/><path d="M140.97936,56.29268c0.08059,0.44828 0.32238,0.81132 0.72608,1.08912c-1.60318,0.13861 -3.05534,0.50165 -4.35647,1.08912c-0.99691,0.11378 -1.9655,-0.00726 -2.90432,-0.36304c0.4037,-0.2778 0.64548,-0.64084 0.72608,-1.08912c1.90741,-0.42955 3.84386,-0.67155 5.80863,-0.72608z" fill="#0b0b0b" fill-rule="evenodd" stroke="none" stroke-width="1"/><path d="M140.97936,56.29268c1.08549,-0.06186 1.81157,0.42221 2.17824,1.45216c-1.87764,0.71156 -3.81409,0.95363 -5.80863,0.72608c1.30113,-0.58747 2.75329,-0.95051 4.35647,-1.08912c-0.4037,-0.2778 -0.64548,-0.64084 -0.72608,-1.08912z" fill="#808080" fill-rule="evenodd" stroke="none" stroke-width="1"/><path d="M135.17073,57.01876c-0.08059,0.44828 -0.32238,0.81132 -0.72608,1.08912c0.93882,0.35578 1.90741,0.47682 2.90432,0.36304c-1.03031,0.69057 -2.23995,0.93265 -3.63039,0.72608c-0.15611,-1.21894 0.32819,-1.94502 1.45216,-2.17824z" fill="#979797" fill-rule="evenodd" stroke="none" stroke-width="1"/><path d="M146.06191,58.47092c1.2808,-0.88015 2.49045,-0.63808 3.63039,0.72608c-1.22853,0.50884 -2.43817,0.26683 -3.63039,-0.72608z" fill="#595959" fill-rule="evenodd" stroke="none" stroke-width="1"/><path d="M246.98687,54.11445c0.51479,-0.65638 1.24087,-0.89838 2.17824,-0.72608c0.77545,0.67852 1.74332,0.92052 2.90432,0.72608c22.62171,7.45225 44.16229,17.13328 64.62101,29.04315c-2.10127,1.04773 -4.03772,1.77381 -5.80863,2.17824c-8.84364,-4.83133 -17.7991,-9.55084 -26.86492,-14.15854c-12.18941,-6.03887 -24.53275,-11.72654 -37.03002,-17.06285z" fill="#111111" fill-rule="evenodd" stroke="none" stroke-width="1"/><path d="M420.5197,59.197c0,1.45216 0,2.90432 0,4.35647c-2.69012,5.01263 -5.59444,9.97414 -8.71295,14.88462c0.16555,0.28971 0.40806,0.41023 0.72608,0.36304c-1.19222,2.62913 -2.64438,5.04915 -4.35647,7.26079c-0.11617,-1.23361 0.00436,-2.44398 0.36304,-3.63039c4.22215,-7.72112 8.21558,-15.46577 11.9803,-23.23452z" fill="#c0c0c0" fill-rule="evenodd" stroke="none" stroke-width="1"/><path d="M420.5197,63.55347c0,0.72608 0,1.45216 0,2.17824c-2.2886,4.57502 -4.95041,8.9315 -7.98687,13.06942c-0.31802,0.0472 -0.56053,-0.07333 -0.72608,-0.36304c3.11851,-4.91047 6.02282,-9.87199 8.71295,-14.88462z" fill="#212121" fill-rule="evenodd" stroke="none" stroke-width="1"/><path d="M253.52158,53.38837c12.2475,4.20617 24.34905,8.92569 36.30394,14.15854c9.92768,4.47628 19.3667,9.68008 28.31707,15.61069c-0.48429,0 -0.96786,0 -1.45216,0c-20.45872,-11.90987 -41.9993,-21.5909 -64.62101,-29.04315c0.72027,0.1246 1.20384,-0.11748 1.45216,-0.72608z" fill="#d9d9d9" fill-rule="evenodd" stroke="none" stroke-width="1"/><path d="M57.4803,81.70544c0,-0.24178 0,-0.48429 0,-0.72608c2.17466,-0.14957 4.11088,0.334 5.80863,1.45216c-1.93621,-0.24178 -3.87242,-0.48429 -5.80863,-0.72608z" fill="#7b7b7b" fill-rule="evenodd" stroke="none" stroke-width="1"/><path d="M57.4803,81.70544c1.93621,0.24178 3.87242,0.48429 5.80863,0.72608c4.21888,0.65492 8.33335,1.74404 12.34334,3.26735c7.95172,3.0096 15.69652,6.39821 23.23452,10.1651c-15.26523,1.22054 -29.06072,6.18256 -41.38649,14.88462c0,-9.68081 0,-19.36234 0,-29.04315z" fill="#040404" fill-rule="evenodd" stroke="none" stroke-width="1"/><path d="M318.14259,83.1576c0.76383,-0.10819 1.48991,0.01234 2.17824,0.36304c1.69685,1.18641 3.149,2.51732 4.35647,3.99343c-2.55943,-0.91413 -4.73766,-2.36629 -6.53471,-4.35647z" fill="#d3d3d3" fill-rule="evenodd" stroke="none" stroke-width="1"/><path d="M324.6773,87.51407c2.4084,0.58449 4.34413,1.91612 5.80863,3.99343c-2.5224,-0.41895 -4.45885,-1.74985 -5.80863,-3.99343z" fill="#a4a4a4" fill-rule="evenodd" stroke="none" stroke-width="1"/><path d="M420.5197,95.50094c0,2.17824 0,4.35647 0,6.53471c-4.89958,3.55488 -9.74035,7.30653 -14.52158,11.25422c-0.48429,0.48429 -0.96786,0.48429 -1.45216,0c5.8021,-5.6714 11.12643,-11.60056 15.97373,-17.78893z" fill="#202020" fill-rule="evenodd" stroke="none" stroke-width="1"/><path d="M420.5197,104.93996c0,8.47116 0,16.9416 0,25.41276c-6.53326,12.48275 -14.15708,24.34179 -22.87148,35.57786c-3.30802,3.32254 -6.57537,6.71042 -9.80206,10.1651c-12.03693,9.85507 -24.86384,18.56801 -38.48218,26.13884c-0.24178,-0.24178 -0.48429,-0.48429 -0.72608,-0.72608c22.84026,-18.15996 39.54007,-40.91018 50.09944,-68.25141c1.36648,-3.49752 2.21309,-7.12792 2.54128,-10.89118c5.86672,-6.47517 12.2809,-12.2838 19.24109,-17.42589z" fill="#070707" fill-rule="evenodd" stroke="none" stroke-width="1"/><path d="M109.75797,118.00938c-11.73503,-0.79506 -23.35229,-0.79506 -34.85178,0c-1.073,0.19023 -2.04115,-0.05155 -2.90432,-0.72608c4.84055,-0.24178 9.68103,-0.48429 14.52158,-0.72608c7.89349,-0.09729 15.63836,0.387 23.23452,1.45216z" fill="#c5c5c5" fill-rule="evenodd" stroke="none" stroke-width="1"/><path d="M109.75797,118.00938c10.72295,0.57505 21.37213,2.269 31.94747,5.08255c-1.93645,0.24178 -3.87218,0.48429 -5.80863,0.72608c-20.43295,-2.00761 -40.76315,-3.94406 -60.99062,-5.80863c11.49949,-0.79506 23.11675,-0.79506 34.85178,0z" fill="#141414" fill-rule="evenodd" stroke="none" stroke-width="1"/><path d="M57.4803,119.46154c21.82469,1.45724 43.60706,3.39369 65.34709,5.80863c0.08038,0.44799 0.32238,0.81103 0.72608,1.08912c-1.17574,0.17135 -1.90182,0.77618 -2.17824,1.8152c-13.25609,0.86549 -26.32551,2.92319 -39.20826,6.17167c-8.73023,2.09256 -16.9591,5.35991 -24.68668,9.80206c0,-8.22865 0,-16.45803 0,-24.68668z" fill="#040404" fill-rule="evenodd" stroke="none" stroke-width="1"/><path d="M122.82739,125.27017c5.38852,0.45453 10.71329,1.30113 15.97373,2.54128c-5.80355,0.36304 -11.61225,0.48357 -17.42589,0.36304c0.27642,-1.03902 1.0025,-1.64384 2.17824,-1.8152c-0.4037,-0.27809 -0.6457,-0.64113 -0.72608,-1.08912z" fill="#2d2d2d" fill-rule="evenodd" stroke="none" stroke-width="1"/><path d="M420.5197,136.88743c0,8.47116 0,16.9416 0,25.41276c-7.06692,7.55122 -14.81201,14.32771 -23.23452,20.33021c-0.71446,-1.86602 -1.5618,-1.86602 -2.54128,0c-0.27809,-0.4037 -0.64113,-0.64548 -1.08912,-0.72608c5.48698,-6.36844 10.44827,-13.14566 14.88462,-20.33021c0.35578,-0.93882 0.47703,-1.90741 0.36304,-2.90432c0.69558,-0.32891 1.30113,-0.81248 1.8152,-1.45216c2.93045,-6.99722 6.19781,-13.77444 9.80206,-20.33021z" fill="#080808" fill-rule="evenodd" stroke="none" stroke-width="1"/><path d="M117.01876,146.32645c-1.02951,-1.31275 -2.48166,-1.79705 -4.35647,-1.45216c4.69287,-1.22126 9.53341,-1.82609 14.52158,-1.8152c-3.48002,0.87783 -6.86834,1.96695 -10.1651,3.26735z" fill="#323232" fill-rule="evenodd" stroke="none" stroke-width="1"/><path d="M166.39212,145.60038c0,-0.24178 0,-0.48429 0,-0.72608c1.58721,-1.06371 3.28115,-1.30549 5.08255,-0.72608c-1.60246,0.8241 -3.2964,1.30767 -5.08255,1.45216z" fill="#757575" fill-rule="evenodd" stroke="none" stroke-width="1"/><path d="M112.66229,144.8743c1.87481,-0.34489 3.32697,0.13941 4.35647,1.45216c-16.06827,5.24374 -31.8,11.53667 -47.19512,18.87805c-0.242,-0.36304 -0.48408,-0.72608 -0.72608,-1.08912c3.58378,-5.0615 8.18233,-8.9344 13.7955,-11.61726c9.56289,-3.95423 19.48592,-6.4955 29.76923,-7.62383z" fill="#0e0e0e" fill-rule="evenodd" stroke="none" stroke-width="1"/><path d="M131.54034,147.05253c3.67686,0.14376 3.55561,0.62806 -0.36304,1.45216c-0.36304,-0.12126 -0.72608,-0.24178 -1.08912,-0.36304c0.66509,-0.20185 1.14866,-0.56489 1.45216,-1.08912z" fill="#606060" fill-rule="evenodd" stroke="none" stroke-width="1"/><path d="M122.10131,150.68293c2.09568,-1.70338 4.51599,-2.30893 7.26079,-1.8152c-2.33841,0.92793 -4.75872,1.53275 -7.26079,1.8152z" fill="#888888" fill-rule="evenodd" stroke="none" stroke-width="1"/><path d="M57.4803,170.28705c0,-4.84077 0,-9.68081 0,-14.52158c5.19917,-2.23051 10.52371,-4.28822 15.97373,-6.17167c3.39507,-0.73189 6.78339,-1.21618 10.1651,-1.45216c-8.90862,4.31 -15.68534,10.84471 -20.33021,19.60413c-1.75163,1.28371 -3.68784,2.13104 -5.80863,2.54128z" fill="#0b0b0b" fill-rule="evenodd" stroke="none" stroke-width="1"/><path d="M122.10131,150.68293c-0.74554,0.97875 -1.71369,1.34179 -2.90432,1.08912c0.77211,-0.86258 1.74019,-1.22562 2.90432,-1.08912z" fill="#616161" fill-rule="evenodd" stroke="none" stroke-width="1"/><path d="M183.09193,151.40901c3.1461,0.48429 6.29292,0.96786 9.43902,1.45216c-4.86473,0.23961 -9.70477,-0.00218 -14.52158,-0.72608c1.62859,-0.7072 3.32254,-0.94971 5.08255,-0.72608z" fill="#afafaf" fill-rule="evenodd" stroke="none" stroke-width="1"/><path d="M211.40901,163.02627c0.88364,-2.56596 0.88364,-5.10724 0,-7.62383c-6.20144,-1.55817 -12.49436,-2.4055 -18.87805,-2.54128c-3.1461,-0.48429 -6.29292,-0.96786 -9.43902,-1.45216c6.53907,-0.12053 13.07377,0 19.60413,0.36304c1.72153,0.53367 3.4162,1.13849 5.08255,1.8152c0.96786,-0.48429 0.96786,-0.96786 0,-1.45216c-4.11469,-2.05698 -8.22865,-4.11469 -12.34334,-6.17167c6.06566,0.73334 11.39,3.15336 15.97373,7.26079c1.50807,0.13941 2.96022,0.50245 4.35647,1.08912c-0.96786,0.24178 -1.93645,0.48429 -2.90432,0.72608c1.87111,1.75711 2.59718,3.93535 2.17824,6.53471c-1.32292,0.24033 -2.53329,0.72463 -3.63039,1.45216z" fill="#202020" fill-rule="evenodd" stroke="none" stroke-width="1"/><path d="M164.93996,157.21764c4.48571,-0.95625 9.0847,-0.95625 13.7955,0c-1.12179,0.69123 -2.33217,0.93301 -3.63039,0.72608c-3.24557,-0.71591 -6.63418,-0.9577 -10.1651,-0.72608z" fill="#959595" fill-rule="evenodd" stroke="none" stroke-width="1"/><path d="M148.24015,158.66979c1.07314,-0.19023 2.04101,0.05155 2.90432,0.72608c-0.48429,0.24178 -0.96786,0.48429 -1.45216,0.72608c-0.88073,-0.17934 -1.36503,-0.66364 -1.45216,-1.45216z" fill="#5f5f5f" fill-rule="evenodd" stroke="none" stroke-width="1"/><path d="M138.80113,163.02627c-0.96786,0 -1.93645,0 -2.90432,0c1.33816,-0.56852 2.79032,-1.05281 4.35647,-1.45216c0.24178,0.24178 0.48429,0.48429 0.72608,0.72608c-0.59902,0.64331 -1.32509,0.88509 -2.17824,0.72608z" fill="#5d5d5d" fill-rule="evenodd" stroke="none" stroke-width="1"/><path d="M211.40901,163.02627c0,0.96786 -0.48429,1.45216 -1.45216,1.45216c0,-0.96786 0.48429,-1.45216 1.45216,-1.45216z" fill="#383838" fill-rule="evenodd" stroke="none" stroke-width="1"/><path d="M166.39212,144.8743c0,0.24178 0,0.48429 0,0.72608c-3.1265,0.8408 -6.03081,2.1717 -8.71295,3.99343c-2.7257,2.81356 -2.7257,5.47536 0,7.98687c2.39606,-0.0334 4.81681,-0.15393 7.26079,-0.36304c3.53092,-0.23162 6.91953,0.01017 10.1651,0.72608c-5.25245,0.14376 -10.33501,0.9911 -15.24765,2.54128c1.12107,0.21056 2.08893,0.69413 2.90432,1.45216c12.3477,0.85677 24.328,3.15626 35.9409,6.89775c3.76327,-1.37592 7.51419,-2.82808 11.25422,-4.35647c-0.00799,1.10146 -0.49156,1.9488 -1.45216,2.54128c-6.18038,3.87436 -12.9576,5.93134 -20.33021,6.17167c11.57442,2.0018 17.02001,8.77829 16.33677,20.33021c-0.73407,0.60773 -1.5814,0.84951 -2.54128,0.72608c-0.81248,-2.42728 -1.78035,-4.84803 -2.90432,-7.26079c-0.48429,-0.96786 -0.96786,-0.96786 -1.45216,0c1.50444,2.09038 2.23051,4.26862 2.17824,6.53471c-2.25447,-1.59302 -4.19093,-3.52874 -5.80863,-5.80863c-2.17461,-7.0132 -6.28857,-12.57932 -12.34334,-16.69981c2.01414,-0.64621 4.07112,-0.64621 6.17167,0c0.84733,-0.12126 1.69394,-0.24178 2.54128,-0.36304c-2.57468,-1.10146 -5.23648,-2.06932 -7.98687,-2.90432c-5.638,-0.09439 -11.20485,-0.69921 -16.69981,-1.8152c-5.57048,0.64694 -11.1366,1.37302 -16.69981,2.17824c-1.28153,-0.69776 -2.73369,-0.94027 -4.35647,-0.72608c5.04407,-2.03883 10.36913,-3.49099 15.97373,-4.35647c-1.82318,-1.94662 -3.88017,-2.91521 -6.17167,-2.90432c-0.11472,-2.82082 -0.11472,-5.72513 0,-8.71295c3.18894,-3.59264 7.18237,-5.77087 11.9803,-6.53471z" fill="#141414" fill-rule="evenodd" stroke="none" stroke-width="1"/><path d="M135.89681,163.02627c0.96786,0 1.93645,0 2.90432,0c-24.82979,8.70496 -48.79039,18.99132 -71.8818,30.85835c7.01966,-9.0208 15.85364,-15.67677 26.50188,-19.96717c13.98275,-4.32089 28.14129,-7.95129 42.47561,-10.89118z" fill="#121212" fill-rule="evenodd" stroke="none" stroke-width="1"/><path d="M144.60976,167.38274c1.62279,-0.21419 3.07494,0.02832 4.35647,0.72608c-3.75092,1.99526 -7.38132,4.1735 -10.89118,6.53471c-9.5059,5.76071 -16.28261,13.86811 -20.33021,24.32364c0.22167,1.90741 1.18975,3.23831 2.90432,3.99343c-0.26872,-4.81027 0.8204,-9.40926 3.26735,-13.7955c1.74709,-1.80285 3.32029,-3.73931 4.71951,-5.80863c0.54514,0.63605 0.90818,1.36212 1.08912,2.17824c1.31275,-3.4997 3.49099,-6.40402 6.53471,-8.71295c0.28971,0.16555 0.41023,0.40806 0.36304,0.72608c-2.58266,2.86293 -4.51911,6.13028 -5.80863,9.80206c0.88073,1.18351 1.48556,2.51514 1.8152,3.99343c0.24178,-0.96786 0.48429,-1.93645 0.72608,-2.90432c0.34198,1.26773 0.82628,2.47811 1.45216,3.63039c1.17697,2.01124 2.5086,3.34214 3.99343,3.99343c-1.34179,1.51968 -3.03574,2.48755 -5.08255,2.90432c2.50933,0.81539 4.56704,0.21056 6.17167,-1.8152c0.24178,-2.66253 0.48429,-5.32434 0.72608,-7.98687c1.30985,3.68848 2.762,7.31887 4.35647,10.89118c0.15611,-3.93172 0.51915,-7.80389 1.08912,-11.61726c0.6905,1.03031 0.93229,2.23995 0.72608,3.63039c3.1265,-0.14304 4.57865,1.30912 4.35647,4.35647c-2.11071,-1.01941 -2.83679,-0.53512 -2.17824,1.45216c3.10326,1.44272 3.58683,3.50043 1.45216,6.17167c1.40714,1.92701 3.34287,2.89488 5.80863,2.90432c0.62225,0.50027 1.10582,1.10509 1.45216,1.8152c-1.74549,0.61717 -3.43944,1.34325 -5.08255,2.17824c1.81374,1.0441 3.38643,0.80159 4.71951,-0.72608c0.94318,0.33835 2.03229,0.33835 3.26735,0c0,1.69394 0,3.38861 0,5.08255c-1.44054,-0.08495 -2.65019,0.39934 -3.63039,1.45216c1.17407,0.12271 2.38444,0.36522 3.63039,0.72608c0.64839,1.87619 0.89017,3.81264 0.72608,5.80863c0.48429,0.96786 1.21037,1.69394 2.17824,2.17824c1.10291,2.68577 2.67633,5.10579 4.71951,7.26079c0.48429,0.72608 0.48429,1.45216 0,2.17824c-1.87183,-0.46542 -3.80828,-0.70793 -5.80863,-0.72608c-3.63765,0.22508 -7.14752,0.95116 -10.52814,2.17824c0.12053,-3.63838 -0.00073,-7.26877 -0.36304,-10.89118c-0.20185,-0.66509 -0.56489,-1.14866 -1.08912,-1.45216c-0.05736,1.03829 0.18442,2.00688 0.72608,2.90432c-1.86239,3.27316 -2.709,6.90356 -2.54128,10.89118c-2.37863,3.46993 -5.16169,6.61603 -8.34991,9.43902c-23.82925,2.33071 -45.85362,-2.75184 -66.07317,-15.24765c-5.31925,-4.10162 -9.43367,-9.18417 -12.34334,-15.24765c-0.71948,-2.86438 -0.96151,-5.7687 -0.72608,-8.71295c0.76382,0.10819 1.4899,-0.01234 2.17824,-0.36304c-0.69019,-0.52132 -0.8112,-1.12615 -0.36304,-1.8152c11.00213,-8.10449 22.74042,-15.00224 35.21482,-20.69325c15.2759,-6.55141 30.76556,-12.48057 46.46904,-17.78893z" fill="#040404" fill-rule="evenodd" stroke="none" stroke-width="1"/><path d="M408.90244,158.66979c0.11399,0.99691 -0.00726,1.9655 -0.36304,2.90432c-4.43634,7.18455 -9.39764,13.96177 -14.88462,20.33021c-0.99691,1.23942 -2.20655,2.20728 -3.63039,2.90432c3.25501,-4.0704 6.52237,-8.18509 9.80206,-12.34334c2.74167,-4.27733 5.28295,-8.6338 7.62383,-13.06942c0.21419,-1.39625 0.81902,-2.60662 1.8152,-3.63039c0.14159,0.9577 0.02033,1.92629 -0.36304,2.90432z" fill="#c6c6c6" fill-rule="evenodd" stroke="none" stroke-width="1"/><path d="M151.14447,197.87805c0,-0.48429 0,-0.96786 0,-1.45216c0.22218,-3.04735 -1.22998,-4.49951 -4.35647,-4.35647c0.20621,-1.39044 -0.03558,-2.60009 -0.72608,-3.63039c0.62152,-3.42201 2.19494,-6.32632 4.71951,-8.71295c0.24541,6.61458 0.72971,13.14929 1.45216,19.60413c-0.5206,-0.39499 -0.88364,-0.87928 -1.08912,-1.45216z" fill="#202020" fill-rule="evenodd" stroke="none" stroke-width="1"/><path d="M193.98311,183.35647c1.0107,-0.74205 1.97856,-0.50027 2.90432,0.72608c-0.36304,0.24178 -0.72608,0.48429 -1.08912,0.72608c-0.73407,-0.4037 -1.33889,-0.88727 -1.8152,-1.45216z" fill="#c3c3c3" fill-rule="evenodd" stroke="none" stroke-width="1"/><path d="M204.8743,170.28705c7.76251,2.55507 13.69167,7.39584 17.78893,14.52158c0.5874,3.53092 0.1031,6.91953 -1.45216,10.1651c-6.359,7.47716 -14.46712,11.83363 -24.32364,13.06942c0,-0.72608 0,-1.45216 0,-2.17824c5.64526,-1.68523 11.09085,-3.86347 16.33677,-6.53471c9.99157,-7.24627 10.11283,-14.62831 0.36304,-22.1454c-2.33217,-2.0381 -4.9947,-3.49026 -7.98687,-4.35647c-1.35995,-0.69195 -1.60173,-1.53929 -0.72608,-2.54128z" fill="#181818" fill-rule="evenodd" stroke="none" stroke-width="1"/><path d="M407.45028,159.39587c-2.34088,4.43562 -4.88215,8.79209 -7.62383,13.06942c-3.2797,4.15825 -6.54705,8.27294 -9.80206,12.34334c1.42384,-0.69704 2.63349,-1.6649 3.63039,-2.90432c0.44799,0.08059 0.81103,0.32238 1.08912,0.72608c0.97948,-1.86602 1.82681,-1.86602 2.54128,0c-9.61183,7.71023 -20.2605,13.03457 -31.94747,15.97373c10.69877,-5.7716 20.25905,-13.03239 28.68011,-21.78236c4.24103,-6.06639 8.71875,-11.87502 13.43246,-17.42589z" fill="#1b1b1b" fill-rule="evenodd" stroke="none" stroke-width="1"/><path d="M390.02439,184.80863c-1.02305,1.39189 -2.23342,2.7228 -3.63039,3.99343c-0.6041,0.49954 -1.08767,0.37829 -1.45216,-0.36304c1.35414,-1.75929 3.04808,-2.96894 5.08255,-3.63039z" fill="#9f9f9f" fill-rule="evenodd" stroke="none" stroke-width="1"/><path d="M127.90994,186.26079c0.86658,0.34126 1.35058,1.06734 1.45216,2.17824c-0.242,0.72608 -0.48408,1.45216 -0.72608,2.17824c-0.7011,-1.37665 -0.9431,-2.8288 -0.72608,-4.35647z" fill="#a2a2a2" fill-rule="evenodd" stroke="none" stroke-width="1"/><path d="M64.74109,189.89118c0.5365,-0.09512 1.02058,0.02614 1.45216,0.36304c-2.91216,6.36989 -3.39622,6.24863 -1.45216,-0.36304z" fill="#5d5d5d" fill-rule="evenodd" stroke="none" stroke-width="1"/><path d="M138.07505,174.64353c-0.11617,1.20021 -0.59974,2.16807 -1.45216,2.90432c0.0472,-0.31802 -0.07333,-0.56053 -0.36304,-0.72608c-3.04372,2.30893 -5.22196,5.21325 -6.53471,8.71295c-0.18094,-0.81611 -0.54398,-1.54219 -1.08912,-2.17824c-1.39923,2.06932 -2.97242,4.00578 -4.71951,5.80863c-2.44696,4.38624 -3.53608,8.98523 -3.26735,13.7955c-1.71456,-0.75512 -2.68264,-2.08602 -2.90432,-3.99343c4.0476,-10.45553 10.82431,-18.56293 20.33021,-24.32364z" fill="#d4d4d4" fill-rule="evenodd" stroke="none" stroke-width="1"/><path d="M153.3227,192.06942c1.03902,0.27664 1.64384,1.00271 1.8152,2.17824c0.76747,2.21381 0.88872,4.39205 0.36304,6.53471c-1.45797,-2.68214 -2.18405,-5.58645 -2.17824,-8.71295z" fill="#171717" fill-rule="evenodd" stroke="none" stroke-width="1"/><path d="M151.14447,196.42589c0,0.48429 0,0.96786 0,1.45216c-0.83644,-0.81684 -1.56252,-0.81684 -2.17824,0c-0.65855,-1.98728 0.06753,-2.47157 2.17824,-1.45216z" fill="#959595" fill-rule="evenodd" stroke="none" stroke-width="1"/><path d="M196.88743,197.15197c7.25934,0.56925 7.50112,2.50497 0.72608,5.80863c0.19096,-1.78688 -0.05155,-3.72333 -0.72608,-5.80863z" fill="#101010" fill-rule="evenodd" stroke="none" stroke-width="1"/><path d="M193.98311,197.87805c0.58232,-1.00562 1.06661,-0.88436 1.45216,0.36304c0.80304,1.36648 0.80304,2.69811 0,3.99343c-0.48575,-1.54727 -0.96932,-2.99943 -1.45216,-4.35647z" fill="#1e1e1e" fill-rule="evenodd" stroke="none" stroke-width="1"/><path d="M134.44465,204.41276c1.61262,1.32872 1.73388,2.78088 0.36304,4.35647c-0.35941,-1.43255 -0.48066,-2.88471 -0.36304,-4.35647z" fill="#d5d5d5" fill-rule="evenodd" stroke="none" stroke-width="1"/><path d="M145.33583,205.13884c0.94535,0.94898 1.91322,0.94898 2.90432,0c0.62007,0.74205 1.34615,1.34688 2.17824,1.8152c-0.85169,2.25811 -0.48865,2.37936 1.08912,0.36304c-0.10746,0.96205 0.01307,1.80939 0.36304,2.54128c-1.66345,-0.58885 -2.99508,0.0167 -3.99343,1.8152c-0.36812,-1.08621 -0.00508,-1.93355 1.08912,-2.54128c-1.08621,-0.36812 -1.93355,-0.00508 -2.54128,1.08912c-0.44799,-0.68905 -0.32746,-1.29387 0.36304,-1.8152c-0.68905,-0.44799 -1.29387,-0.32746 -1.8152,0.36304c-0.33109,-0.90324 0.03195,-1.50807 1.08912,-1.8152c-0.54601,-0.4872 -0.78852,-1.09202 -0.72608,-1.8152z" fill="#b8b8b8" fill-rule="evenodd" stroke="none" stroke-width="1"/><path d="M420.5197,206.59099c0,4.11469 0,8.22865 0,12.34334c-4.91192,3.79449 -9.99447,7.42488 -15.24765,10.89118c-0.24178,-0.24178 -0.48429,-0.48429 -0.72608,-0.72608c5.87833,-7.17584 11.20267,-14.67841 15.97373,-22.50844z" fill="#121212" fill-rule="evenodd" stroke="none" stroke-width="1"/><path d="M63.28893,208.76923c1.2526,0.24905 1.61564,0.97512 1.08912,2.17824c-0.7541,-0.5402 -1.11714,-1.26628 -1.08912,-2.17824z" fill="#7c7c7c" fill-rule="evenodd" stroke="none" stroke-width="1"/><path d="M135.89681,210.22139c1.45361,1.47104 1.69612,3.16498 0.72608,5.08255c-0.7072,-1.62859 -0.94971,-3.32254 -0.72608,-5.08255z" fill="#777777" fill-rule="evenodd" stroke="none" stroke-width="1"/><path d="M144.60976,218.93433c-1.71137,0.11835 -3.40531,-0.00218 -5.08255,-0.36304c-1.89144,-0.01888 -2.73804,-0.86621 -2.54128,-2.54128c2.47956,1.3476 5.02083,2.31547 7.62383,2.90432z" fill="#c5c5c5" fill-rule="evenodd" stroke="none" stroke-width="1"/><path d="M144.60976,218.93433c3.32254,0.17934 5.25899,1.87401 5.80863,5.08255c-1.72153,-1.96477 -3.65726,-3.65871 -5.80863,-5.08255z" fill="#9d9d9d" fill-rule="evenodd" stroke="none" stroke-width="1"/><path d="M163.4878,225.46904c-0.96786,-0.48429 -1.69394,-1.21037 -2.17824,-2.17824c0.55763,-0.554 0.92067,-1.28008 1.08912,-2.17824c1.25539,1.42094 1.61843,2.87309 1.08912,4.35647z" fill="#959595" fill-rule="evenodd" stroke="none" stroke-width="1"/><path d="M167.1182,228.37336c1.09928,0.85677 2.30966,1.58285 3.63039,2.17824c0.59974,0.6905 0.72027,1.41658 0.36304,2.17824c-1.98002,-0.91413 -3.31165,-2.36629 -3.99343,-4.35647z" fill="#292929" fill-rule="evenodd" stroke="none" stroke-width="1"/><path d="M175.10507,236.36023c0.18152,1.5785 0.9076,2.78887 2.17824,3.63039c1.69322,4.31726 3.38716,8.67374 5.08255,13.06942c0.17934,0.88073 0.66364,1.36503 1.45216,1.45216c2.25157,9.35335 7.57663,16.37235 15.97373,21.05629c1.28734,1.0107 2.7395,1.85804 4.35647,2.54128c-5.16387,0.86766 -10.24642,2.07731 -15.24765,3.63039c-3.77271,0.8938 -7.04006,0.04647 -9.80206,-2.54128c-0.24178,-6.29292 -0.48429,-12.58512 -0.72608,-18.87805c-2.18041,-8.94602 -4.96347,-17.65896 -8.34991,-26.13884c2.14411,-0.25413 3.83878,0.47195 5.08255,2.17824z" fill="#0a0a0a" fill-rule="evenodd" stroke="none" stroke-width="1"/><path d="M175.83114,235.63415c1.02087,0.34344 1.50516,1.06951 1.45216,2.17824c-1.02087,-0.34344 -1.50516,-1.06951 -1.45216,-2.17824z" fill="#161616" fill-rule="evenodd" stroke="none" stroke-width="1"/><path d="M58.20638,234.18199c3.55431,1.83117 7.18469,3.52584 10.89118,5.08255c-0.242,0.24178 -0.48408,0.48429 -0.72608,0.72608c-2.9001,-1.08839 -5.8044,-2.17751 -8.71295,-3.26735c-0.96044,-0.59248 -1.44449,-1.43981 -1.45216,-2.54128z" fill="#222222" fill-rule="evenodd" stroke="none" stroke-width="1"/><path d="M175.83114,235.63415c-0.053,1.10872 0.43129,1.8348 1.45216,2.17824c0.81684,0.61571 0.81684,1.34179 0,2.17824c-1.27064,-0.84153 -1.99672,-2.0519 -2.17824,-3.63039c-0.38337,-0.97803 -0.50462,-1.94662 -0.36304,-2.90432c0.7544,0.5402 1.11744,1.26628 1.08912,2.17824z" fill="#a8a8a8" fill-rule="evenodd" stroke="none" stroke-width="1"/><path d="M86.52345,245.79925c-1.53014,0.70284 -3.2243,0.94535 -5.08255,0.72608c-7.44136,-0.86694 -14.46008,-3.04517 -21.05629,-6.53471c0.48405,-0.24178 0.9681,-0.48429 1.45216,-0.72608c8.35179,1.82681 16.58066,4.00505 24.68668,6.53471z" fill="#161616" fill-rule="evenodd" stroke="none" stroke-width="1"/><path d="M200.51782,245.79925c-1.03031,0.6905 -2.23995,0.93229 -3.63039,0.72608c-3.87944,-1.10146 -7.75234,-2.43309 -11.61726,-3.99343c-0.8604,-0.98238 -1.82899,-1.82972 -2.90432,-2.54128c-0.73044,-0.65057 -0.73044,-1.13414 0,-1.45216c6.16223,2.23777 12.21337,4.6578 18.15197,7.26079z" fill="#191919" fill-rule="evenodd" stroke="none" stroke-width="1"/><path d="M57.4803,245.79925c21.18378,16.02165 45.14438,25.46068 71.8818,28.31707c-0.02795,2.40114 0.45612,4.70063 1.45216,6.89775c1.84351,4.12122 3.65871,8.11466 5.44559,11.9803c-10.16503,1.86239 -20.2091,4.04063 -30.13227,6.53471c-0.71998,-0.12489 -1.20406,0.11762 -1.45216,0.72608c-0.96285,1.59302 -2.17294,3.04517 -3.63039,4.35647c1.18394,1.24886 2.03099,2.70101 2.54128,4.35647c0.43173,-1.01578 0.31069,-1.98365 -0.36304,-2.90432c0.48763,-1.20529 1.21371,-2.17315 2.17824,-2.90432c1.17421,-0.39063 2.38437,-0.63241 3.63039,-0.72608c0,-0.72608 0,-1.45216 0,-2.17824c2.01225,-1.15156 4.19049,-1.5146 6.53471,-1.08912c1.02668,1.44708 1.75275,3.02049 2.17824,4.71951c0,0.72608 0,1.45216 0,2.17824c-0.93737,-0.17208 -1.66345,0.0697 -2.17824,0.72608c1.30077,0.09729 2.51093,-0.14449 3.63039,-0.72608c3.79899,0.56707 7.42938,-0.15901 10.89118,-2.17824c3.81845,0.97875 7.69063,1.70483 11.61726,2.17824c1.16463,4.21997 2.37428,8.33466 3.63039,12.34334c0.58014,2.12741 0.82192,4.30565 0.72608,6.53471c0.01743,9.01862 0.7435,17.97335 2.17824,26.86492c-0.12198,2.92247 -0.36377,5.82678 -0.72608,8.71295c-12.58512,0 -25.17076,0 -37.7561,0c-3.3714,-1.81229 -7.0018,-3.1432 -10.89118,-3.99343c-13.41895,-8.1604 -27.21445,-15.54244 -41.38649,-22.1454c0,-29.52745 0,-59.05417 0,-88.58161z" fill="#010101" fill-rule="evenodd" stroke="none" stroke-width="1"/><path d="M86.52345,245.79925c2.74218,0.31512 5.16242,1.28298 7.26079,2.90432c-4.17793,-0.87129 -8.2924,-1.59737 -12.34334,-2.17824c1.85825,0.21928 3.55241,-0.02323 5.08255,-0.72608z" fill="#6f6f6f" fill-rule="evenodd" stroke="none" stroke-width="1"/><path d="M200.51782,274.8424c-7.03716,-4.75582 -11.75667,-11.29053 -14.15854,-19.60413c-0.61862,-0.77763 -1.22344,-1.50371 -1.8152,-2.17824c0.02904,-2.12378 -0.57578,-4.05951 -1.8152,-5.80863c-0.48429,-1.45216 -0.48429,-2.90432 0,-4.35647c6.04025,6.35029 13.42229,10.34372 22.1454,11.9803c4.62004,0.17934 9.2183,0.54238 13.7955,1.08912c8.49367,4.48862 16.96483,8.96562 25.41276,13.43246c-8.84872,1.33598 -17.56167,3.27244 -26.13884,5.80863c-3.75601,0.31947 -7.50693,0.68251 -11.25422,1.08912c-2.23124,0.0138 -4.28895,-0.46977 -6.17167,-1.45216z" fill="#060606" fill-rule="evenodd" stroke="none" stroke-width="1"/><path d="M200.51782,245.79925c1.43836,0.43928 1.68087,1.16536 0.72608,2.17824c-2.38226,0.05809 -4.5605,-0.42621 -6.53471,-1.45216c0.72608,0 1.45216,0 2.17824,0c1.39044,0.20621 2.60009,-0.03558 3.63039,-0.72608z" fill="#b4b4b4" fill-rule="evenodd" stroke="none" stroke-width="1"/><path d="M194.70919,246.52533c1.97421,1.02595 4.15244,1.51024 6.53471,1.45216c4.50895,1.30549 8.86542,3.12069 13.06942,5.44559c-8.66139,0.49519 -16.40648,-1.92556 -23.23452,-7.26079c1.16681,0.0138 2.37718,0.13432 3.63039,0.36304z" fill="#161616" fill-rule="evenodd" stroke="none" stroke-width="1"/><path d="M93.78424,248.70356c3.07298,0.20185 5.9773,1.04846 8.71295,2.54128c-3.27331,0.19749 -6.17762,-0.64911 -8.71295,-2.54128z" fill="#484848" fill-rule="evenodd" stroke="none" stroke-width="1"/><path d="M144.60976,244.34709c1.10945,0.01234 1.47249,0.49664 1.08912,1.45216c-2.65382,3.86347 -5.79992,7.25135 -9.43902,10.1651c-0.48429,-0.48429 -0.48429,-0.96786 0,-1.45216c2.76273,-3.47429 5.54579,-6.8629 8.34991,-10.1651z" fill="#1c1c1c" fill-rule="evenodd" stroke="none" stroke-width="1"/><path d="M103.22326,252.33396c1.11439,-0.93519 2.32454,-0.93519 3.63039,0c-1.09101,0.4008 -2.30116,0.4008 -3.63039,0z" fill="#5d5d5d" fill-rule="evenodd" stroke="none" stroke-width="1"/><path d="M184.54409,253.06004c0.59175,0.67453 1.19658,1.40061 1.8152,2.17824c2.40187,8.3136 7.12138,14.84831 14.15854,19.60413c-0.48429,0 -0.72608,0.24178 -0.72608,0.72608c-8.3971,-4.68393 -13.72216,-11.70294 -15.97373,-21.05629c0.24178,-0.48429 0.48429,-0.96786 0.72608,-1.45216z" fill="#d1d1d1" fill-rule="evenodd" stroke="none" stroke-width="1"/><path d="M103.22326,253.78612c-5.67997,0.60192 -11.4886,0.96496 -17.42589,1.08912c3.01875,0.827 6.16506,1.19004 9.43902,1.08912c3.03588,-0.00073 5.9402,-0.24251 8.71295,-0.72608c9.90749,-0.43202 19.83052,-0.31076 29.76923,0.36304c-3.40313,3.32689 -5.33937,7.32033 -5.80863,11.9803c-8.08808,-0.73407 -16.07495,-2.06569 -23.9606,-3.99343c-10.70051,-3.84749 -21.10769,-8.32522 -31.22139,-13.43246c-0.96808,-0.48429 -0.96808,-0.96786 0,-1.45216c10.16438,1.69394 20.32948,3.38861 30.49531,5.08255z" fill="#0b0b0b" fill-rule="evenodd" stroke="none" stroke-width="1"/><path d="M420.5197,249.42964c0,2.42002 0,4.84077 0,7.26079c-4.7943,1.3948 -9.63434,2.7257 -14.52158,3.99343c-1.21037,0.48429 -2.42002,0.48429 -3.63039,0c6.16804,-3.63983 12.21845,-7.39148 18.15197,-11.25422z" fill="#161616" fill-rule="evenodd" stroke="none" stroke-width="1"/><path d="M103.22326,253.78612c0.9972,-0.11399 1.96535,0.00726 2.90432,0.36304c-0.89852,0.16845 -1.6246,0.53149 -2.17824,1.08912c-2.77275,0.48357 -5.67706,0.72535 -8.71295,0.72608c-3.27396,0.10092 -6.42028,-0.26211 -9.43902,-1.08912c5.93729,-0.12416 11.74592,-0.4872 17.42589,-1.08912z" fill="#595959" fill-rule="evenodd" stroke="none" stroke-width="1"/><path d="M230.28705,258.14259c6.16441,-0.84007 12.45733,-0.96133 18.87805,-0.36304c4.73839,2.02431 9.57916,3.8395 14.52158,5.44559c-3.77634,2.00616 -7.40673,4.18439 -10.89118,6.53471c-8.1241,-2.78016 -15.62667,-6.65306 -22.50844,-11.61726z" fill="#090909" fill-rule="evenodd" stroke="none" stroke-width="1"/><path d="M330.48593,263.95122c1.62206,0.08713 3.19547,-0.15465 4.71951,-0.72608c0.93301,0.32674 1.78035,0.81103 2.54128,1.45216c0.64331,-0.59902 0.88509,-1.32509 0.72608,-2.17824c9.88556,-2.37646 19.80816,-5.03899 29.76923,-7.98687c1.86094,0.17208 1.86094,0.53512 0,1.08912c-21.52896,8.86107 -43.91615,14.79023 -67.16229,17.78893c-1.08912,-0.12126 -2.17824,-0.24178 -3.26735,-0.36304c3.83079,-2.24867 7.94475,-3.94261 12.34334,-5.08255c6.90791,-0.94826 13.68513,-2.27916 20.33021,-3.99343z" fill="#141414" fill-rule="evenodd" stroke="none" stroke-width="1"/><path d="M338.4728,262.49906c0.15901,0.85314 -0.08277,1.57922 -0.72608,2.17824c-0.76093,-0.64113 -1.60826,-1.12542 -2.54128,-1.45216c-1.52404,0.57142 -3.09745,0.81321 -4.71951,0.72608c2.45124,-1.14866 5.11305,-1.63295 7.98687,-1.45216z" fill="#707070" fill-rule="evenodd" stroke="none" stroke-width="1"/><path d="M420.5197,264.6773c0,25.41276 0,50.82552 0,76.23827c-6.70969,-2.58411 -13.48619,-5.12539 -20.33021,-7.62383c-20.13199,-4.18657 -39.97862,-9.02734 -59.53846,-14.52158c25.59065,12.06453 50.03554,25.98128 73.33396,41.74953c-22.02415,0 -44.04902,0 -66.07317,0c-0.05446,-3.95858 -0.66001,-7.83149 -1.8152,-11.61726c-0.73915,-2.31111 -2.31256,-3.27897 -4.71951,-2.90432c-13.28506,2.61025 -26.47574,5.75635 -39.57129,9.43902c-2.51078,-0.22291 -4.32598,-1.43328 -5.44559,-3.63039c-0.84007,-6.29873 -2.89778,-12.10736 -6.17167,-17.42589c-0.93519,-4.16697 -2.02431,-8.28165 -3.26735,-12.34334c-0.83354,-1.1973 -1.8014,-2.28642 -2.90432,-3.26735c-3.9005,-0.74423 -7.77267,-0.98602 -11.61726,-0.72608c-1.96913,-2.2523 -4.26862,-4.06749 -6.89775,-5.44559c-2.489,-3.80611 -4.78849,-7.67901 -6.89775,-11.61726c0,-0.48429 0.24178,-0.72608 0.72608,-0.72608c16.11387,3.6166 32.33011,6.7627 48.64728,9.43902c4.22215,0.9076 8.45809,2.11797 12.70638,3.63039c1.3781,-0.61862 1.25684,-1.10291 -0.36304,-1.45216c-3.4133,-0.98674 -6.80118,-1.9546 -10.1651,-2.90432c-9.57916,-2.99943 -19.25997,-5.54071 -29.04315,-7.62383c-11.31449,-2.02068 -22.56871,-4.32017 -33.76266,-6.89775c-0.72608,0.24178 -1.45216,0.48429 -2.17824,0.72608c-11.2593,-1.45797 -22.27102,-3.87799 -33.03659,-7.26079c4.46175,-0.71882 9.06001,-0.9606 13.7955,-0.72608c18.60795,1.50226 37.24421,2.59138 55.90807,3.26735c4.88143,1.95969 9.96398,2.80702 15.24765,2.54128c42.71304,-3.19838 83.85702,-12.6374 123.4334,-28.31707z" fill="#030303" fill-rule="evenodd" stroke="none" stroke-width="1"/><path d="M336.29456,284.28143c-1.161,0.19459 -2.12886,-0.04792 -2.90432,-0.72608c18.1055,-2.38735 36.01569,-6.139 53.72983,-11.25422c2.39679,-0.7239 4.81681,-0.96568 7.26079,-0.72608c-18.87442,6.53398 -38.23604,10.76993 -58.0863,12.70638z" fill="#1c1c1c" fill-rule="evenodd" stroke="none" stroke-width="1"/><path d="M333.39024,283.55535c0.77545,0.67816 1.74332,0.92067 2.90432,0.72608c-2.79613,0.95044 -5.70044,0.95044 -8.71295,0c1.87764,-0.71156 3.81409,-0.95334 5.80863,-0.72608z" fill="#969696" fill-rule="evenodd" stroke="none" stroke-width="1"/><path d="M188.17448,285.73358c1.52767,-0.2171 2.97983,0.02469 4.35647,0.72608c-0.72608,0.24178 -1.45216,0.48429 -2.17824,0.72608c-1.1109,-0.10165 -1.83698,-0.58595 -2.17824,-1.45216z" fill="#717171" fill-rule="evenodd" stroke="none" stroke-width="1"/><path d="M225.93058,287.18574c-4.73549,-0.23452 -9.33374,0.00726 -13.7955,0.72608c-0.39426,-0.04356 -0.63605,-0.28535 -0.72608,-0.72608c4.95331,-0.95697 9.79408,-0.95697 14.52158,0z" fill="#797979" fill-rule="evenodd" stroke="none" stroke-width="1"/><path d="M198.33959,287.18574c3.63838,-0.12053 7.26877,0.00073 10.89118,0.36304c1.86021,1.75203 4.03845,2.9624 6.53471,3.63039c5.86454,2.19639 11.91495,3.64855 18.15197,4.35647c-5.8885,4.10089 -12.42321,6.40038 -19.60413,6.89775c-9.66266,-1.57051 -19.34419,-2.90214 -29.04315,-3.99343c-3.79376,-2.40477 -5.73021,-5.91391 -5.80863,-10.52814c6.42507,0.2367 12.718,-0.00508 18.87805,-0.72608z" fill="#070707" fill-rule="evenodd" stroke="none" stroke-width="1"/><path d="M308.70356,288.6379c1.85804,-0.21928 3.5527,0.02323 5.08255,0.72608c-5.93642,0.95915 -11.98683,0.95915 -18.15197,0c4.32961,-0.72317 8.68608,-0.96496 13.06942,-0.72608z" fill="#585858" fill-rule="evenodd" stroke="none" stroke-width="1"/><path d="M308.70356,288.6379c4.46756,-0.83717 9.06582,-0.95842 13.7955,-0.36304c-2.86075,0.73697 -5.76507,1.10001 -8.71295,1.08912c-1.52985,-0.70284 -3.22452,-0.94535 -5.08255,-0.72608z" fill="#6a6a6a" fill-rule="evenodd" stroke="none" stroke-width="1"/><path d="M259.33021,300.25516c-0.48429,0 -0.72608,0.24178 -0.72608,0.72608c-2.42946,-0.36522 -4.84948,-0.84951 -7.26079,-1.45216c2.83171,-0.90615 5.49424,-0.66436 7.98687,0.72608z" fill="#606060" fill-rule="evenodd" stroke="none" stroke-width="1"/><path d="M106.12758,299.52908c0.77516,0.67816 1.74332,0.92067 2.90432,0.72608c0,0.72608 0,1.45216 0,2.17824c-1.24602,0.09366 -2.45618,0.33545 -3.63039,0.72608c-0.53301,-0.8771 -0.77502,-1.84497 -0.72608,-2.90432c0.2481,-0.60845 0.73218,-0.85096 1.45216,-0.72608z" fill="#656565" fill-rule="evenodd" stroke="none" stroke-width="1"/><path d="M104.67542,300.25516c-0.04894,1.05935 0.19306,2.02721 0.72608,2.90432c-0.96452,0.73116 -1.6906,1.69902 -2.17824,2.90432c0.67373,0.92067 0.79477,1.88853 0.36304,2.90432c-0.51029,-1.65546 -1.35733,-3.10762 -2.54128,-4.35647c1.45746,-1.3113 2.66754,-2.76346 3.63039,-4.35647z" fill="#b7b7b7" fill-rule="evenodd" stroke="none" stroke-width="1"/><path d="M117.74484,303.88555c0.65441,0.5736 1.13842,1.29968 1.45216,2.17824c-1.11947,0.58159 -2.32962,0.82337 -3.63039,0.72608c0.51479,-0.65638 1.24087,-0.89816 2.17824,-0.72608c0,-0.72608 0,-1.45216 0,-2.17824z" fill="#959595" fill-rule="evenodd" stroke="none" stroke-width="1"/><path d="M105.4015,306.06379c1.45216,0 2.90432,0 4.35647,0c-0.19931,3.52003 -1.89354,4.48789 -5.08255,2.90432c-0.04894,-1.05935 0.19306,-2.02721 0.72608,-2.90432z" fill="#a6a6a6" fill-rule="evenodd" stroke="none" stroke-width="1"/><path d="M115.5666,306.78987c-0.52996,0.88001 -1.25604,1.60609 -2.17824,2.17824c1.07431,1.48411 0.71127,2.45269 -1.08912,2.90432c-0.88923,-0.26284 -1.73634,-0.62588 -2.54128,-1.08912c0.48408,-0.24178 0.96808,-0.48429 1.45216,-0.72608c-0.63909,-0.98456 -0.8811,-2.07368 -0.72608,-3.26735c1.69416,0 3.38839,0 5.08255,0z" fill="#bbbbbb" fill-rule="evenodd" stroke="none" stroke-width="1"/><path d="M310.15572,308.96811c3.36392,0.94971 6.75181,1.91757 10.1651,2.90432c1.61988,0.34924 1.74114,0.83354 0.36304,1.45216c-4.24829,-1.51242 -8.48423,-2.7228 -12.70638,-3.63039c0.93737,0.17208 1.66345,-0.0697 2.17824,-0.72608z" fill="#bcbcbc" fill-rule="evenodd" stroke="none" stroke-width="1"/><path d="M391.47655,317.68105c-1.09638,-0.89162 -2.1855,-0.89162 -3.26735,0c-0.78925,-1.76582 -1.15229,-1.52331 -1.08912,0.72608c-0.72608,0 -1.45216,0 -2.17824,0c-0.48429,-2.90432 -0.96786,-2.90432 -1.45216,0c-1.21037,0 -2.42002,0 -3.63039,0c-0.00581,-4.14446 0.35723,-4.38624 1.08912,-0.72608c0.3507,-0.68832 0.47123,-1.4144 0.36304,-2.17824c2.63712,-0.15974 5.29965,-0.40152 7.98687,-0.72608c1.48846,0.41895 2.21454,1.38681 2.17824,2.90432z" fill="#828282" fill-rule="evenodd" stroke="none" stroke-width="1"/><path d="M394.38086,317.68105c-0.79433,1.69612 -1.76219,1.69612 -2.90432,0c0.88001,-0.53004 1.60609,-1.25612 2.17824,-2.17824c0.64331,0.59902 0.88509,1.32509 0.72608,2.17824z" fill="#8b8b8b" fill-rule="evenodd" stroke="none" stroke-width="1"/><path d="M397.28518,314.05066c1.72081,0.3507 2.2051,1.1973 1.45216,2.54128c1.10146,1.29169 1.70701,0.92865 1.8152,-1.08912c0.94318,0.33835 2.03229,0.33835 3.26735,0c-0.10819,0.76383 0.01234,1.48991 0.36304,2.17824c1.03321,-4.64908 1.63876,-4.40657 1.8152,0.72608c-1.50298,0.03703 -2.83389,-0.44654 -3.99343,-1.45216c-1.27935,0.32238 -1.1581,0.68542 0.36304,1.08912c-1.67724,0.36086 -3.37118,0.48139 -5.08255,0.36304c0,-1.45216 0,-2.90432 0,-4.35647z" fill="#7c7c7c" fill-rule="evenodd" stroke="none" stroke-width="1"/><path d="M394.38086,317.68105c1.03902,-0.27664 1.64384,-1.00271 1.8152,-2.17824c0.35578,0.93882 0.47703,1.90741 0.36304,2.90432c-0.93737,0.17208 -1.66345,-0.0697 -2.17824,-0.72608z" fill="#ababab" fill-rule="evenodd" stroke="none" stroke-width="1"/><path d="M413.98499,316.22889c-0.10964,2.33652 -0.71446,2.57831 -1.8152,0.72608c-1.27354,1.27064 -2.84695,1.75493 -4.71951,1.45216c-0.2171,-1.52767 0.02469,-2.97983 0.72608,-4.35647c0.50245,0.38119 0.86549,0.86549 1.08912,1.45216c1.01506,-0.40007 1.98365,-0.64185 2.90432,-0.72608c0.30277,0.91195 0.9076,1.39625 1.8152,1.45216z" fill="#6b6b6b" fill-rule="evenodd" stroke="none" stroke-width="1"/><path d="M413.98499,316.22889c1.26991,-1.73896 2.48029,-1.73896 3.63039,0c-2.80339,0.79723 -2.80339,1.40206 0,1.8152c-0.93882,0.35578 -1.90741,0.47703 -2.90432,0.36304c0.17208,-0.93737 -0.0697,-1.66345 -0.72608,-2.17824z" fill="#888888" fill-rule="evenodd" stroke="none" stroke-width="1"/><path d="M420.5197,340.91557c0,6.53471 0,13.06942 0,19.60413c-2.17824,0 -4.35647,0 -6.53471,0c-23.29842,-15.76825 -47.74331,-29.68501 -73.33396,-41.74953c19.55984,5.49424 39.40647,10.33501 59.53846,14.52158c6.84402,2.49844 13.62051,5.03971 20.33021,7.62383z" fill="#f3f3f3" fill-rule="evenodd" stroke="none" stroke-width="1"/><path d="M145.33583,318.40713c0.44799,0.08059 0.81103,0.32238 1.08912,0.72608c0.58159,2.08167 0.46033,4.01812 -0.36304,5.80863c0.09584,-2.22906 -0.14594,-4.4073 -0.72608,-6.53471z" fill="#7d7d7d" fill-rule="evenodd" stroke="none" stroke-width="1"/><path d="M407.45028,320.58537c1.41368,0.84298 2.0185,2.05335 1.8152,3.63039c-0.7072,-1.72662 -1.1915,-1.48411 -1.45216,0.72608c-0.35941,-1.43255 -0.48066,-2.88471 -0.36304,-4.35647z" fill="#b7b7b7" fill-rule="evenodd" stroke="none" stroke-width="1"/><path d="M410.3546,320.58537c0.82846,1.40641 1.43401,2.85857 1.8152,4.35647c-1.46377,-1.05644 -2.0686,-2.5086 -1.8152,-4.35647z" fill="#c8c8c8" fill-rule="evenodd" stroke="none" stroke-width="1"/><path d="M413.25891,322.03752c1.45216,0 2.90432,0 4.35647,0c-0.12489,3.2463 -0.73044,3.48808 -1.8152,0.72608c-0.48429,2.90432 -0.96786,2.90432 -1.45216,0c-0.7573,2.70537 -1.12034,2.46359 -1.08912,-0.72608z" fill="#9d9d9d" fill-rule="evenodd" stroke="none" stroke-width="1"/><path d="M57.4803,334.38086c14.17204,6.60296 27.96754,13.985 41.38649,22.1454c3.88939,0.85024 7.51978,2.18114 10.89118,3.99343c-4.84055,0 -9.68103,0 -14.52158,0c-2.13278,-1.56543 -4.55309,-2.65454 -7.26079,-3.26735c-10.29943,-2.42656 -20.46453,-5.21034 -30.49531,-8.34991c0,-4.84077 0,-9.68081 0,-14.52158z" fill="#f2f2f2" fill-rule="evenodd" stroke="none" stroke-width="1"/><path d="M57.4803,348.90244c10.03078,3.13956 20.19588,5.92335 30.49531,8.34991c2.70769,0.61281 5.128,1.70193 7.26079,3.26735c-12.58534,0 -25.17076,0 -37.7561,0c0,-3.87218 0,-7.74508 0,-11.61726z" fill="#040404" fill-rule="evenodd" stroke="none" stroke-width="1"/><text transform="translate(17.2045,340.51758) scale(0.59039,0.59039)" font-size="40" xml:space="preserve" fill="#ffffff" fill-rule="nonzero" stroke="#000000" stroke-width="1" font-family="Sans Serif" font-weight="normal" text-anchor="start"><tspan x="0" dy="0">ANYBODY CAN FIND LOVE (EXCEPT YOU)</tspan></text></g></g></svg>