<svg version="1.1" xmlns="http://www.w3.org/2000/svg" xmlns:xlink="http://www.w3.org/1999/xlink" width="14.16842" height="14.16842" viewBox="0,0,14.16842,14.16842"><g transform="translate(-232.91579,-172.91578)"><g stroke="none" stroke-miterlimit="10"><path d="M232.91579,187.0842v-14.16842h14.16842v14.16842z" fill="#ff0000" stroke-width="NaN"/><path d="M237.08977,180.1007c-1.5387,0 -1.6615,-5.88333 -0.60964,-6.0937c0.1757,-0.15316 0.40542,-0.24592 0.65681,-0.24592c0.55228,0 1,0.44772 1,1c0,0.27046 -0.10737,0.51585 -0.28182,0.69585c0.44368,1.89752 0.50052,4.64377 -0.76535,4.64377z" fill="#000000" stroke-width="0.5"/><path d="M241.4294,174.84598c0.35961,0.20549 0.67892,0.71481 0.93015,1.3679c0.82108,2.13445 0.91505,5.80462 -0.68728,5.42345c-0.73753,-0.17544 -1.62564,-6.0012 -1.10469,-6.29889z" fill="#000000" stroke-width="0.5"/><path d="M236.95771,184.26263c-0.09012,0.05585 -0.12292,0.17529 -0.14074,0.33213c0.14668,0.174 0.23508,0.39876 0.23508,0.64416c0,0.55228 -0.44772,1 -1,1c-0.36703,0 -0.68787,-0.19773 -0.86182,-0.49247c-0.93119,-0.5321 0.00676,-2.65799 0.5998,-3.1542c1.40987,-1.17969 9.06456,-0.68052 9.37095,0.54503c0.53436,2.13743 -4.17653,0.74887 -5.57301,0.79032c-0.7426,0.02204 -1.98229,-0.06656 -2.63027,0.33502z" fill="#000000" stroke-width="0.5"/></g></g></svg>