<svg version="1.1" xmlns="http://www.w3.org/2000/svg" xmlns:xlink="http://www.w3.org/1999/xlink" width="14.16842" height="14.16842" viewBox="0,0,14.16842,14.16842"><g transform="translate(-232.91579,-172.91578)"><g stroke="none" stroke-miterlimit="10"><path d="M232.91579,187.0842v-14.16842h14.16842v14.16842z" fill="#ffffff" stroke-width="NaN"/><path d="M237.08977,180.1007c-1.5387,0 -1.6615,-5.88333 -0.60964,-6.0937c0.1757,-0.15316 0.40542,-0.24592 0.65681,-0.24592c0.55228,0 1,0.44772 1,1c0,0.27046 -0.10737,0.51585 -0.28182,0.69585c0.44368,1.89752 0.50052,4.64377 -0.76535,4.64377z" fill="#000000" stroke-width="0.5"/><path d="M241.4294,174.84598c0.35961,0.20549 0.67892,0.71481 0.93015,1.3679c0.82108,2.13445 0.91505,5.80462 -0.68728,5.42345c-0.73753,-0.17544 -1.62564,-6.0012 -1.10469,-6.29889z" fill="#000000" stroke-width="0.5"/><path d="M236.9577,183.89775c0.64798,0.40158 1.88767,0.31298 2.63027,0.33502c1.39648,0.04145 6.10737,-1.34711 5.57301,0.79032c-0.30639,1.22555 -7.96108,1.72472 -9.37095,0.54503c-0.59304,-0.49621 -1.53099,-2.6221 -0.5998,-3.1542c0.17395,-0.29474 0.49479,-0.49247 0.86182,-0.49247c0.55228,0 1,0.44772 1,1c0,0.2454 -0.0884,0.47016 -0.23508,0.64416c0.01782,0.15684 0.05062,0.27628 0.14074,0.33213z" fill="#000000" stroke-width="0.5"/></g></g></svg>